# 3ds Max Wavefront OBJ Exporter v0.97b - (c)2007 guruware
# File Created: 24.04.2013 21:53:35

mtllib Pillar.mtl

#
# object Box001
#

v  -13.4681 79.2485 20.5298
v  -24.9849 79.2485 20.5298
v  -24.9849 79.2485 32.4191
v  -13.4681 79.2485 32.4191
v  -7.7547 -0.8339 38.2217
v  -8.1504 5.8734 37.8056
v  -30.3025 5.8734 37.8056
v  -30.6982 -0.8339 38.2217
v  -7.7547 -0.8339 14.7272
v  -8.1504 5.8734 15.1433
v  -30.6982 -0.8339 14.7272
v  -30.3025 5.8734 15.1433
v  -13.1304 38.0214 32.7677
v  -25.3225 38.0214 32.7677
v  -26.8367 35.8759 34.3308
v  -11.6162 35.8759 34.3308
v  -13.1304 38.0214 20.1812
v  -11.6162 35.8759 18.6181
v  -25.3225 38.0214 20.1812
v  -26.8367 35.8759 18.6181
v  -27.2361 5.5026 34.7432
v  -11.2168 5.5026 34.7432
v  -11.2168 5.5026 18.2057
v  -27.2361 5.5026 18.2057
# 24 vertices

vn 0.0000 1.0000 -0.0000
vn -0.0000 0.0619 0.9981
vn 0.0000 0.0619 0.9981
vn 0.9983 0.0589 -0.0000
vn 0.0000 0.0619 -0.9981
vn -0.9983 0.0589 0.0000
vn -0.9983 0.0589 -0.0000
vn -0.0000 0.3572 0.9340
vn -0.0000 0.2547 0.9670
vn 0.9367 0.3502 -0.0000
vn 0.9692 0.2462 -0.0000
vn 0.0000 0.3572 -0.9340
vn 0.0000 0.2547 -0.9670
vn -0.9367 0.3502 0.0000
vn -0.9692 0.2462 0.0000
vn -0.0000 0.0085 1.0000
vn 0.0000 0.0085 1.0000
vn 1.0000 0.0082 -0.0000
vn 0.0000 0.0085 -1.0000
vn -1.0000 0.0082 0.0000
vn -1.0000 0.0082 -0.0000
vn -0.0000 0.0136 0.9999
vn 0.9999 0.0131 -0.0000
vn 0.0000 0.0136 -0.9999
vn -0.9999 0.0131 0.0000
vn -0.0000 0.9927 -0.1202
vn 0.1201 0.9928 0.0000
vn 0.0000 0.9927 0.1202
vn -0.1201 0.9928 -0.0000
# 29 vertex normals

vt 0.9650 0.9485 0.0000
vt 0.7287 0.9485 0.0000
vt 0.7287 0.7121 0.0000
vt 0.9650 0.7121 0.0000
vt 0.0221 0.1685 0.0000
vt 0.0309 0.0188 0.0000
vt 0.5252 0.0188 0.0000
vt 0.5341 0.1685 0.0000
vt 0.0157 0.1664 0.0000
vt 0.0250 0.0168 0.0000
vt 0.5307 0.0168 0.0000
vt 0.5400 0.1664 0.0000
vt 0.0221 0.1663 0.0000
vt 0.0309 0.0166 0.0000
vt 0.5252 0.0166 0.0000
vt 0.5341 0.1663 0.0000
vt 0.0136 0.1644 0.0000
vt 0.0229 0.0147 0.0000
vt 0.5286 0.0147 0.0000
vt 0.5379 0.1644 0.0000
vt 0.3471 0.9742 0.0000
vt 0.0879 0.9765 0.0000
vt 0.0553 0.9311 0.0000
vt 0.3789 0.9283 0.0000
vt 0.3525 0.9742 0.0000
vt 0.0849 0.9765 0.0000
vt 0.0513 0.9312 0.0000
vt 0.3853 0.9283 0.0000
vt 0.3446 0.9610 0.0000
vt 0.0854 0.9633 0.0000
vt 0.0528 0.9179 0.0000
vt 0.3764 0.9151 0.0000
vt 0.3526 0.9742 0.0000
vt 0.0850 0.9765 0.0000
vt 0.0514 0.9312 0.0000
vt 0.3855 0.9283 0.0000
vt 0.6905 0.9786 0.0000
vt 0.4716 0.9805 0.0000
vt 0.4584 0.1972 0.0000
vt 0.6901 0.1952 0.0000
vt 0.6951 0.9786 0.0000
vt 0.4692 0.9806 0.0000
vt 0.4557 0.1972 0.0000
vt 0.6949 0.1951 0.0000
vt 0.6883 0.9668 0.0000
vt 0.4694 0.9687 0.0000
vt 0.4562 0.1854 0.0000
vt 0.6879 0.1834 0.0000
vt 0.6952 0.9786 0.0000
vt 0.4693 0.9806 0.0000
vt 0.4559 0.1972 0.0000
vt 0.6950 0.1951 0.0000
vt 0.0411 0.2854 0.0000
vt 0.3817 0.2825 0.0000
vt 0.0369 0.2855 0.0000
vt 0.3885 0.2824 0.0000
vt 0.0387 0.2722 0.0000
vt 0.3793 0.2692 0.0000
vt 0.0370 0.2855 0.0000
vt 0.3886 0.2824 0.0000
vt 0.8305 0.5460 0.0000
vt 0.8267 0.1103 0.0000
vt 0.9092 0.0262 0.0000
vt 0.9145 0.6286 0.0000
vt 0.8209 0.1033 0.0000
vt 0.8248 0.5530 0.0000
vt 0.9090 0.6356 0.0000
vt 0.9036 0.0193 0.0000
vt 0.8245 0.1103 0.0000
vt 0.8283 0.5460 0.0000
vt 0.9123 0.6286 0.0000
vt 0.9070 0.0262 0.0000
vt 0.8235 0.5531 0.0000
vt 0.8196 0.1033 0.0000
vt 0.9022 0.0193 0.0000
vt 0.9076 0.6356 0.0000
# 76 texture coords

g Box001
usemtl 01___Default
s 4
f 1/1/1 2/2/1 3/3/1 4/4/1 
s 8
f 5/5/2 6/6/2 7/7/2 8/8/3 
s 16
f 9/9/4 10/10/4 6/11/4 5/12/4 
s 32
f 11/13/5 12/14/5 10/15/5 9/16/5 
s 64
f 8/17/6 7/18/6 12/19/6 11/20/7 
s 8
f 13/21/8 14/22/8 15/23/9 16/24/9 
s 16
f 17/25/10 13/26/10 16/27/11 18/28/11 
s 32
f 19/29/12 17/30/12 18/31/13 20/32/13 
s 64
f 14/33/14 19/34/14 20/35/15 15/36/15 
s 8
f 4/37/16 3/38/17 14/39/8 13/40/8 
s 16
f 1/41/18 4/42/18 13/43/10 17/44/10 
s 32
f 2/45/19 1/46/19 17/47/12 19/48/12 
s 64
f 3/49/20 2/50/21 19/51/14 14/52/14 
s 8
f 16/24/9 15/23/9 21/53/22 22/54/22 
s 16
f 18/28/11 16/27/11 22/55/23 23/56/23 
s 32
f 20/32/13 18/31/13 23/57/24 24/58/24 
s 64
f 15/36/15 20/35/15 24/59/25 21/60/25 
s off
f 22/61/26 21/62/26 7/63/26 6/64/26 
f 21/65/27 24/66/27 12/67/27 7/68/27 
f 24/69/28 23/70/28 10/71/28 12/72/28 
f 23/73/29 22/74/29 6/75/29 10/76/29 
# 21 polygons

